<svg width="147" height="55" viewBox="0 0 147 55" fill="none" xmlns="http://www.w3.org/2000/svg">
<path d="M81.9999 53.5L81.9999 9.22317L50.9998 1.37322L120.5 1.37333L90.9998 9.22317L81.9999 53.5Z" fill="#D9D9D9"/>
<path d="M27.3878 48L29.7514 33.8182H33.6847L31.321 48H27.3878ZM32.1243 31.9716C31.5395 31.9716 31.0563 31.7777 30.6747 31.3899C30.2992 30.996 30.1454 30.5282 30.2131 29.9865C30.2808 29.4325 30.5455 28.9647 31.0071 28.5831C31.4688 28.1953 31.992 28.0014 32.5767 28.0014C33.1615 28.0014 33.6385 28.1953 34.0078 28.5831C34.3771 28.9647 34.531 29.4325 34.4695 29.9865C34.4079 30.5282 34.1463 30.996 33.6847 31.3899C33.2292 31.7777 32.709 31.9716 32.1243 31.9716ZM39.79 39.8011L38.4235 48H34.4995L36.8631 33.8182H40.6025L40.1962 36.3203H40.3532C40.8025 35.4893 41.4365 34.8338 42.2551 34.3537C43.08 33.8736 44.0186 33.6335 45.0712 33.6335C46.056 33.6335 46.8778 33.849 47.5364 34.2798C48.2012 34.7107 48.669 35.3232 48.9398 36.1172C49.2168 36.9112 49.263 37.8622 49.0783 38.9702L47.5641 48H43.6309L45.025 39.6719C45.1666 38.804 45.0558 38.1269 44.6926 37.6406C44.3356 37.1482 43.7601 36.902 42.9661 36.902C42.4367 36.902 41.9505 37.0159 41.5073 37.2436C41.0641 37.4714 40.6917 37.8037 40.3901 38.2408C40.0946 38.6716 39.8946 39.1918 39.79 39.8011ZM64.1165 37.8622L60.5433 38.0838C60.5249 37.7699 60.4387 37.4898 60.2848 37.2436C60.1371 36.9912 59.9186 36.7912 59.6293 36.6435C59.3461 36.4957 58.9891 36.4219 58.5582 36.4219C57.9119 36.4219 57.3364 36.5696 56.8317 36.8651C56.3269 37.1605 56.0407 37.5391 55.973 38.0007C55.9176 38.2962 55.9946 38.5455 56.2038 38.7486C56.4131 38.9517 56.8348 39.1241 57.4688 39.2656L59.9616 39.7827C61.2912 40.0658 62.2514 40.5367 62.8423 41.1953C63.4394 41.8539 63.6518 42.7157 63.4794 43.7805C63.3255 44.6854 62.9285 45.4763 62.2884 46.1534C61.6482 46.8243 60.8357 47.3475 59.8509 47.723C58.866 48.0923 57.7734 48.277 56.5732 48.277C54.6465 48.277 53.1816 47.883 52.1783 47.0952C51.175 46.3073 50.6918 45.2393 50.7287 43.8913L54.5696 43.6882C54.6004 44.2668 54.8035 44.7038 55.179 44.9993C55.5545 45.2886 56.0684 45.4363 56.7209 45.4425C57.4534 45.4548 58.075 45.304 58.5859 44.9901C59.103 44.67 59.3954 44.2822 59.4631 43.8267C59.5123 43.5066 59.42 43.2481 59.1861 43.0511C58.9583 42.8542 58.5398 42.6911 57.9304 42.5618L55.5668 42.0724C54.2249 41.7955 53.2616 41.3 52.6768 40.5859C52.0921 39.8719 51.892 38.964 52.0767 37.8622C52.2244 36.982 52.5907 36.228 53.1754 35.6001C53.7663 34.9661 54.5265 34.4799 55.456 34.1413C56.3916 33.8028 57.4472 33.6335 58.6229 33.6335C60.4633 33.6335 61.8482 34.0121 62.7777 34.7692C63.7133 35.5263 64.1596 36.5573 64.1165 37.8622ZM89.3155 48L91.6792 33.8182H95.6124L93.2488 48H89.3155ZM94.052 31.9716C93.4673 31.9716 92.9841 31.7777 92.6025 31.3899C92.227 30.996 92.0731 30.5282 92.1408 29.9865C92.2085 29.4325 92.4732 28.9647 92.9348 28.5831C93.3965 28.1953 93.9197 28.0014 94.5044 28.0014C95.0892 28.0014 95.5662 28.1953 95.9355 28.5831C96.3049 28.9647 96.4587 29.4325 96.3972 29.9865C96.3356 30.5282 96.074 30.996 95.6124 31.3899C95.1569 31.7777 94.6368 31.9716 94.052 31.9716ZM96.4272 48L98.7908 33.8182H102.53L102.124 36.3203H102.281C102.712 35.4893 103.312 34.8338 104.081 34.3537C104.857 33.8736 105.728 33.6335 106.694 33.6335C107.654 33.6335 108.436 33.8767 109.039 34.3629C109.649 34.843 110 35.4955 110.092 36.3203H110.24C110.658 35.5078 111.289 34.8584 112.132 34.3722C112.976 33.8797 113.917 33.6335 114.958 33.6335C116.269 33.6335 117.272 34.0552 117.968 34.8984C118.663 35.7417 118.882 36.9297 118.623 38.4624L117.035 48H113.102L114.579 39.2379C114.696 38.4439 114.579 37.853 114.228 37.4652C113.877 37.0713 113.388 36.8743 112.76 36.8743C112.046 36.8743 111.452 37.102 110.978 37.5575C110.504 38.0069 110.212 38.6009 110.101 39.3395L108.633 48H104.82L106.316 39.1548C106.42 38.4531 106.306 37.8991 105.974 37.4929C105.648 37.0805 105.158 36.8743 104.506 36.8743C104.075 36.8743 103.666 36.9851 103.278 37.2067C102.896 37.4221 102.573 37.7268 102.309 38.1207C102.044 38.5085 101.872 38.964 101.792 39.4872L100.351 48H96.4272ZM126.54 48.277C125.088 48.277 123.884 47.9815 122.93 47.3906C121.976 46.7936 121.305 45.9503 120.918 44.8608C120.536 43.7652 120.471 42.4695 120.724 40.9737C120.97 39.5149 121.465 38.2346 122.21 37.1328C122.961 36.031 123.903 35.1723 125.036 34.5568C126.168 33.9413 127.43 33.6335 128.821 33.6335C129.757 33.6335 130.603 33.7843 131.36 34.0859C132.123 34.3814 132.757 34.8307 133.262 35.4339C133.767 36.031 134.112 36.7789 134.296 37.6776C134.487 38.5762 134.484 39.6288 134.287 40.8352L134.112 41.9155H122.146L122.524 39.478H130.797C130.889 38.9117 130.852 38.41 130.686 37.973C130.52 37.536 130.243 37.1944 129.855 36.9482C129.467 36.6958 128.99 36.5696 128.424 36.5696C127.845 36.5696 127.304 36.7112 126.799 36.9943C126.294 37.2775 125.87 37.6499 125.525 38.1115C125.186 38.567 124.968 39.0625 124.869 39.598L124.435 42.017C124.312 42.7618 124.337 43.3804 124.509 43.8729C124.688 44.3653 124.996 44.7346 125.433 44.9808C125.87 45.2209 126.424 45.3409 127.094 45.3409C127.531 45.3409 127.941 45.2794 128.322 45.1562C128.71 45.0331 129.055 44.8516 129.357 44.6115C129.658 44.3653 129.904 44.0606 130.095 43.6974L133.687 43.9375C133.354 44.8116 132.85 45.5748 132.173 46.2273C131.496 46.8736 130.68 47.3783 129.726 47.7415C128.778 48.0985 127.716 48.277 126.54 48.277ZM135.679 48L138.042 33.8182H141.856L141.44 36.2926H141.588C141.994 35.4124 142.539 34.7476 143.222 34.2983C143.912 33.8428 144.653 33.6151 145.447 33.6151C145.644 33.6151 145.85 33.6274 146.066 33.652C146.287 33.6705 146.484 33.7012 146.657 33.7443L146.066 37.2436C145.894 37.1821 145.647 37.1328 145.327 37.0959C145.013 37.0528 144.715 37.0312 144.432 37.0312C143.859 37.0312 143.327 37.1574 142.834 37.4098C142.342 37.656 141.926 38.0007 141.588 38.4439C141.256 38.8871 141.037 39.398 140.932 39.9766L139.612 48H135.679Z" fill="#106951"/>
<path d="M32 1L14 46L43.141 53.5H0L32 1Z" fill="#D9D9D9"/>
</svg>
